<svg width="33" height="33" viewBox="0 0 33 33" fill="none" xmlns="http://www.w3.org/2000/svg">
<path fill-rule="evenodd" clip-rule="evenodd" d="M25.4141 27.2115V27.2087L25.4389 27.1496L29.5625 6.35962V6.29362C29.5625 5.77525 29.37 5.32287 28.9548 5.052C28.5904 4.81412 28.171 4.79762 27.8768 4.81962C27.6029 4.84439 27.3326 4.89974 27.071 4.98462C26.9595 5.02059 26.8494 5.06095 26.741 5.10562L26.7231 5.1125L3.73315 14.1311L3.72627 14.1339C3.65638 14.1577 3.58796 14.1857 3.5214 14.2177C3.35789 14.2912 3.20102 14.3786 3.05252 14.479C2.7569 14.6825 2.19452 15.161 2.2894 15.92C2.36777 16.5497 2.8009 16.9485 3.09377 17.1561C3.26664 17.2773 3.4525 17.3787 3.6479 17.4586L3.6919 17.4779L3.70565 17.482L3.71527 17.4861L7.73852 18.8405C7.72477 19.0921 7.74952 19.3492 7.8169 19.6036L9.83127 27.2472C9.94132 27.6639 10.1791 28.0356 10.5112 28.3102C10.8434 28.5848 11.2532 28.7484 11.6831 28.7782C12.113 28.8079 12.5414 28.7022 12.9082 28.476C13.275 28.2497 13.5617 27.9143 13.728 27.5167L16.874 24.1535L22.2764 28.295L22.3534 28.328C22.8443 28.5425 23.3021 28.6099 23.7215 28.5535C24.1409 28.4957 24.4736 28.3197 24.7239 28.1204C25.0133 27.8857 25.244 27.5867 25.3976 27.2472L25.4086 27.2239L25.4128 27.2156L25.4141 27.2115ZM9.81065 19.0784C9.78834 18.9936 9.79364 18.9038 9.82578 18.8223C9.85793 18.7407 9.91524 18.6714 9.9894 18.6246L23.6308 9.96212C23.6308 9.96212 24.4338 9.474 24.4049 9.96212C24.4049 9.96212 24.5479 10.0474 24.1175 10.4475C23.7105 10.8284 14.3949 19.8222 13.4516 20.7325C13.3992 20.7834 13.3625 20.8483 13.3458 20.9195L11.825 26.722L9.81065 19.077V19.0784Z" fill="#7C8685"/>
</svg>
