<svg width="111" height="23" viewBox="0 0 111 23" fill="none" xmlns="http://www.w3.org/2000/svg">
<path d="M2.6 19V5H3.96V19H2.6ZM9.1625 5H10.5225V18.6C10.7758 18.6 11.1758 18.56 11.7225 18.48L15.0425 17.98V19H9.1625V5ZM18.3813 5H19.7413V18.6C19.9946 18.6 20.3946 18.56 20.9413 18.48L24.2613 17.98V19H18.3813V5ZM27.0094 5H28.3694V13.44C28.3694 15.0533 28.7627 16.3133 29.5494 17.22C30.3494 18.1133 31.4694 18.56 32.9094 18.56C33.816 18.56 34.6027 18.3867 35.2694 18.04C35.9494 17.68 36.4694 17.1867 36.8294 16.56C37.2027 15.9333 37.376 15.2133 37.3494 14.4L37.0094 5H38.3694L38.0294 14.4C37.976 16 37.496 17.2133 36.5894 18.04C35.696 18.8667 34.416 19.28 32.7494 19.28C30.9494 19.28 29.5427 18.76 28.5294 17.72C27.516 16.6667 27.0094 15.2267 27.0094 13.4V5ZM56.3464 5V19H54.9864V6.16H54.8664L50.0264 15.44H49.4064L43.9064 7.26H43.7864L44.2264 19H42.8664L43.3664 4.72H43.7664L50.0664 14.08H50.1864L54.9064 5H56.3464ZM61.5453 19V5H62.9053V19H61.5453ZM67.8078 19L68.3078 4.72H68.5478L78.6078 16.88H78.7278L78.2878 5H79.6478L79.1478 19.28H78.9078L68.8478 7.12H68.7278L69.1678 19H67.8078ZM83.5531 12C83.5531 10.9733 83.7331 10.02 84.0931 9.14C84.4665 8.24667 84.9798 7.47333 85.6331 6.82C86.2998 6.15333 87.0731 5.64 87.9531 5.28C88.8465 4.90667 89.8065 4.72 90.8331 4.72C91.8598 4.72 92.8131 4.90667 93.6931 5.28C94.5865 5.64 95.3598 6.15333 96.0131 6.82C96.6798 7.47333 97.1931 8.24667 97.5531 9.14C97.9265 10.02 98.1131 10.9733 98.1131 12C98.1131 13.0267 97.9265 13.9867 97.5531 14.88C97.1931 15.76 96.6798 16.5333 96.0131 17.2C95.3598 17.8533 94.5865 18.3667 93.6931 18.74C92.8131 19.1 91.8598 19.28 90.8331 19.28C89.8065 19.28 88.8465 19.1 87.9531 18.74C87.0731 18.3667 86.2998 17.8533 85.6331 17.2C84.9798 16.5333 84.4665 15.76 84.0931 14.88C83.7331 13.9867 83.5531 13.0267 83.5531 12ZM85.0731 12C85.0731 13.36 85.3131 14.5533 85.7931 15.58C86.2731 16.5933 86.9465 17.3867 87.8131 17.96C88.6798 18.52 89.6865 18.8 90.8331 18.8C91.9798 18.8 92.9865 18.52 93.8531 17.96C94.7198 17.3867 95.3931 16.5867 95.8731 15.56C96.3531 14.5333 96.5931 13.3467 96.5931 12C96.5931 10.6533 96.3531 9.47333 95.8731 8.46C95.3931 7.43333 94.7198 6.63333 93.8531 6.06C92.9865 5.48667 91.9798 5.2 90.8331 5.2C89.6865 5.2 88.6798 5.48667 87.8131 6.06C86.9598 6.62 86.2865 7.41333 85.7931 8.44C85.3131 9.45333 85.0731 10.64 85.0731 12ZM101.087 18.56L101.207 17.36H101.327C101.847 17.8133 102.434 18.1667 103.087 18.42C103.74 18.6733 104.387 18.8 105.027 18.8C105.934 18.8 106.667 18.5533 107.227 18.06C107.787 17.5533 108.067 16.88 108.067 16.04C108.067 15.5733 107.96 15.14 107.747 14.74C107.547 14.34 107.207 13.9333 106.727 13.52C106.26 13.1067 105.614 12.66 104.787 12.18C104.214 11.8467 103.667 11.5 103.147 11.14C102.627 10.7667 102.2 10.34 101.867 9.86C101.534 9.36667 101.367 8.78 101.367 8.1C101.367 7.08667 101.734 6.27333 102.467 5.66C103.2 5.03333 104.167 4.72 105.367 4.72C105.9 4.72 106.474 4.78 107.087 4.9C107.7 5.00667 108.174 5.14667 108.507 5.32L108.407 6.44H108.287C107.527 5.61333 106.554 5.2 105.367 5.2C104.514 5.2 103.827 5.42 103.307 5.86C102.787 6.28667 102.527 6.86667 102.527 7.6C102.527 8.14667 102.667 8.62 102.947 9.02C103.24 9.40667 103.614 9.76 104.067 10.08C104.52 10.3867 105.007 10.6867 105.527 10.98C106.127 11.3267 106.707 11.6933 107.267 12.08C107.84 12.4667 108.307 12.9333 108.667 13.48C109.04 14.0133 109.227 14.6867 109.227 15.5C109.227 16.2467 109.054 16.9067 108.707 17.48C108.36 18.04 107.867 18.48 107.227 18.8C106.6 19.12 105.867 19.28 105.027 19.28C104.494 19.28 103.867 19.2133 103.147 19.08C102.427 18.9467 101.74 18.7733 101.087 18.56Z" fill="white"/>
<ellipse cx="90.5" cy="12" rx="6.5" ry="7" fill="white"/>
<path d="M88.322 8.60296L94.344 11.9906L88.322 15.3783L88.322 8.60296Z" fill="#C13B00"/>
</svg>
