<svg width="33" height="33" viewBox="0 0 33 33" fill="none" xmlns="http://www.w3.org/2000/svg">
<path d="M22.825 8.0025C21.8851 6.92948 21.3671 5.55147 21.3675 4.125H17.1187V21.175C17.086 22.0977 16.6964 22.9716 16.0321 23.6128C15.3679 24.254 14.4807 24.6124 13.5575 24.6125C11.605 24.6125 9.98247 23.0175 9.98247 21.0375C9.98247 18.6725 12.265 16.8987 14.6162 17.6275V13.2825C9.87247 12.65 5.71997 16.335 5.71997 21.0375C5.71997 25.6163 9.51497 28.875 13.5437 28.875C17.8612 28.875 21.3675 25.3687 21.3675 21.0375V12.3888C23.0903 13.626 25.1588 14.2899 27.28 14.2863V10.0375C27.28 10.0375 24.695 10.1613 22.825 8.0025Z" fill="#7C8685"/>
</svg>
