<svg width="33" height="33" viewBox="0 0 33 33" fill="none" xmlns="http://www.w3.org/2000/svg">
<path d="M27.2662 10.9995V11.7145C27.279 13.791 26.8794 15.8494 26.0907 17.7703C25.302 19.6912 24.1397 21.4364 22.6714 22.9047C21.2031 24.373 19.4579 25.5352 17.537 26.324C15.6161 27.1127 13.5577 27.5123 11.4812 27.4995C8.45918 27.5083 5.49889 26.6441 2.95624 25.0108H4.33124C6.82474 25.0108 9.24595 24.1731 11.2062 22.632C10.0443 22.6216 8.91546 22.2435 7.98172 21.5518C7.04798 20.8601 6.35729 19.8905 6.00874 18.782C6.35887 18.8378 6.71293 18.8654 7.06749 18.8645C7.55857 18.861 8.04761 18.801 8.52499 18.6858C7.28269 18.4322 6.16615 17.7572 5.36435 16.775C4.56255 15.7927 4.12473 14.5637 4.12499 13.2958C4.89373 13.7198 5.75033 13.9599 6.62749 13.997C5.85353 13.485 5.2194 12.7882 4.78246 11.9696C4.34552 11.1509 4.11955 10.2362 4.12499 9.30826C4.1267 8.3423 4.38279 7.39382 4.86749 6.55826C6.25861 8.27378 7.99456 9.67798 9.9629 10.6799C11.9312 11.6818 14.0881 12.2592 16.2937 12.3745C16.2065 11.9584 16.1604 11.5347 16.1562 11.1095C16.1204 9.97772 16.4348 8.86245 17.0565 7.916C17.6782 6.96955 18.5768 6.23806 19.6297 5.8214C20.6827 5.40475 21.8385 5.32324 22.9395 5.58801C24.0405 5.85278 25.0329 6.45092 25.7812 7.30076C27.0257 7.0508 28.2169 6.58548 29.3012 5.92576C28.8871 7.20886 28.0161 8.29515 26.8537 8.97826C27.9588 8.85884 29.0392 8.57136 30.0575 8.12576C29.3035 9.22708 28.3746 10.1978 27.3075 10.9995H27.2662Z" fill="#7C8685"/>
</svg>
