<svg width="33" height="33" viewBox="0 0 33 33" fill="none" xmlns="http://www.w3.org/2000/svg">
<path d="M27.0463 11.1923C26.924 10.7211 26.6788 10.2907 26.3358 9.94527C25.9927 9.59982 25.5641 9.35162 25.0938 9.22604C22.242 8.8897 19.3714 8.73813 16.5 8.77229C13.6286 8.73813 10.7581 8.8897 7.90626 9.22604C7.4359 9.35162 7.0073 9.59982 6.66426 9.94527C6.32122 10.2907 6.07604 10.7211 5.95376 11.1923C5.64138 12.944 5.4895 14.7205 5.50001 16.4998C5.48897 18.2882 5.64085 20.0739 5.95376 21.8348C6.08237 22.2984 6.33037 22.7202 6.67299 23.058C7.01561 23.3958 7.44086 23.6378 7.90626 23.7598C10.7581 24.0961 13.6286 24.2477 16.5 24.2135C19.3714 24.2477 22.242 24.0961 25.0938 23.7598C25.5592 23.6378 25.9844 23.3958 26.327 23.058C26.6697 22.7202 26.9177 22.2984 27.0463 21.8348C27.3592 20.0739 27.5111 18.2882 27.5 16.4998C27.5105 14.7205 27.3586 12.944 27.0463 11.1923ZM14.245 19.786V13.241L20.0063 16.4998L14.245 19.7723V19.786Z" fill="#7C8685"/>
</svg>
